<?xml version="1.0" encoding="utf-8"?>
<!-- Generator: Adobe Illustrator 27.9.0, SVG Export Plug-In . SVG Version: 6.00 Build 0)  -->
<svg version="1.1" id="Layer_1" xmlns="http://www.w3.org/2000/svg" xmlns:xlink="http://www.w3.org/1999/xlink" x="0px" y="0px"
	 viewBox="0 0 69.6 53.8" style="enable-background:new 0 0 69.6 53.8;" xml:space="preserve">
<style type="text/css">
	.st0{fill:#FCFDFC;}
	.st1{fill:#66B02D;}
	.st2{fill:#11592D;}
	.st3{fill:#FEEE08;}
	.st4{fill:#28B5E7;}
</style>
<path class="st0" d="M44,1.9c0-1-0.8-1.9-1.8-1.9c-1.1,0-1.9,0.8-1.9,1.9s0.9,1.9,1.9,1.9C43.2,3.7,44,2.8,44,1.9z"/>
<path class="st1" d="M43.6,22.2c3.5-2.6,5.4-6.1,6.4-10.4c0.2-0.8,0-1.5-0.5-2.2c-0.8-1.1-1.6-2.2-2-3.5c-0.2-0.4-0.3-0.8-0.3-1.2
	c0-0.3,0-0.4,0.3-0.6c0.3-0.2,0.5,0,0.7,0.2c0.4,0.4,0.8,0.9,1.3,1.5c0-1.5-0.7-2.7-1.2-3.8C48.1,1.9,48,1.9,48,1.8
	c-0.2-0.4-0.6-0.9-0.1-1.2c0.4-0.3,0.7,0.4,1,0.7c3.6,5.6,4.3,11.4,1.5,17.5c-3.2,6.9-10,11.1-17.4,10.6C25.1,29,17.7,22.1,16.5,14
	c-0.6-4.5,0.4-8.7,2.8-12.5c0.3-0.4,0.6-1.2,1.2-1c0.6,0.4-0.1,1-0.3,1.4c-0.5,1.2-1.1,2.3-1.5,3.6c0.7,0,0.8-0.6,1.2-0.9
	c0.3-0.3,0.5-0.7,1-0.4c0.4,0.3,0.3,0.7,0.2,1.2c-0.4,1.4-1.1,2.7-1.9,3.7c-0.9,1.1-1,2.1-0.7,3.4c2.5,9.9,12,14.7,20.4,12.1
	c1.3-0.4,2.6-1.1,3.8-1.9C43.3,23.2,43.7,23,43.6,22.2z"/>
<path class="st2" d="M46,40.1c0-3.2,0.5-6.1,0.7-9c0-0.6,0.4-1.1,1-1.1c0.7,0,0.9,0.4,1,1c0.1,0.5,0,1.1,0,1.7
	c-0.3,4.8-0.4,9.6-0.1,14.4c0.1,1,0,2,0.1,3c0,0.7-0.3,1.2-1,1.2c-0.6,0-1.2-0.3-1.2-1.1c-0.1-0.8,0.3-1.8-0.4-2.2
	c-0.4-0.4-1.4,0-2.1-0.2c-2.1-0.3-4-1.1-5.6-2.5c-1.5-1.3-1.7-4.2-0.4-6c1.1-1.6,2.9-1.9,5.1-1.1C44,38.6,45,39.2,46,40.1z
	 M46.2,45.3c0-2.5-1.9-4.5-4.5-4.9c-0.9-0.2-1.8-0.3-2.3,0.8c-0.4,1-0.3,1.9,0.7,2.7c1.4,1.2,3.2,1.7,5.1,2.1
	C46,46.3,46.4,46.1,46.2,45.3z"/>
<path class="st2" d="M4.6,42.5c0.1-2.7,0.2-5.4,0.4-8.1c0.1-1.9,0.5-2.3,2.4-2.3c2.7,0,5.2,0.1,7.9,0.2c0.6,0,1.7,0,1.7,0.6
	c0,0.9-1,1.2-1.9,1.2c-2.1,0-4.3,0-6.5-0.1c-0.8,0-1,0.1-0.9,1c0.3,1.5,0.2,1.5,1.7,1.5c2-0.1,4,0.1,5.9,0.4c0.3,0,0.5,0,0.6,0.3
	c0.1,0.4-0.2,0.5-0.4,0.7c-0.7,0.5-1.6,0.6-2.4,0.6c-1.6,0-3.1,0.1-4.7,0c-0.6,0-0.8,0.2-0.8,0.8c0,2.7,0,5.5-0.1,8.2
	c0,0.9-0.1,1.8-0.3,2.7c-0.1,0.7-0.5,1.1-1.3,1.1c-0.7,0-1.2-0.4-1.2-1.1c-0.1-0.8-0.2-1.5-0.2-2.3C4.7,46,4.7,44.2,4.6,42.5z"/>
<path class="st2" d="M33.5,20.5c-1.4-0.9-2.7-1.5-3.9-2.3c-0.7-0.4-1.2-0.4-1.9,0c-1.2,0.8-2.4,1.4-3.8,2.3c0.3-1.9,0.5-3.5,0.9-5.2
	c0.1-0.6,0-1.1-0.4-1.5c-1.1-1.1-2.1-2.2-3.2-3.5c5.7,1.9,11,1.4,16-2.2c-0.1,0.7-0.4,1-0.6,1.3c-1.2,1.4-2.3,2.8-3.5,4.3
	c-0.4,0.5-0.6,1.1-0.5,1.8C33,16.9,33.2,18.5,33.5,20.5z"/>
<path class="st2" d="M34.1,39.1c-0.8,0.8-1.2,1.9-1.8,2.8c-1.3,2.5-2,5.2-2.7,8c-0.1,0.5-0.1,1.2-1,1.2c-0.8,0-1-0.7-1.1-1.2
	c-0.9-3.5-0.8-7.2-0.6-10.8c0-0.5,0.1-1.2,0.2-1.7c0.1-0.4,0.3-0.9,0.8-1c0.6,0,0.8,0.4,0.9,1c0.4,1.9,0.4,4,0.5,5.9
	c0,0.7,0,1.3,0,2.2c0.5-0.4,0.5-0.9,0.6-1.2c0.9-2.7,2-5.1,3.8-7.4c0.4-0.4,0.8-0.7,1.4-0.5s0.7,0.7,0.8,1.2c0.4,2-0.1,4-0.1,5.9
	c-0.1,1.9-0.1,3.7,0.2,5.5c0.2,1.1-0.5,1.4-1.2,1.6c-0.9,0.2-1.2-0.4-1.2-1.2c-0.4-3.2,0-6.4,0.5-9.6C34.2,39.7,34.3,39.4,34.1,39.1
	z"/>
<path class="st2" d="M59.9,44.8c-0.3-0.2-0.5-0.1-0.7,0.2c-0.2,0.3-0.4,0.5-0.4,0.8c-0.4,1-1,1.9-1.7,2.7c-0.7,0.8-1.5,0.7-2.2,0.2
	c-0.5-0.4-0.8-1-1.1-1.5c-0.2-0.5-0.3-0.9,0.5-1.1c2.1-0.4,3.7-1.9,4.8-3.6c1.1-1.8,0.9-3.5-0.5-4.9c-1.4-1.3-3.1-1.6-4.9-0.6
	c-1.1,0.6-1.8,1.4-2.3,2.5c-0.8,1.7-1.2,3.4-1.2,5c0,2,0.2,3.8,1.3,5.2c1.2,1.7,3.5,2,5.1,0.8c1.7-1.3,2.5-3.2,3.3-5.1
	C60,45.2,60,45,59.9,44.8z M53.3,44c0-1.3,0.4-2.6,1-3.7c0.4-0.7,0.9-1.2,1.7-1.5c0.7-0.3,1.3-0.2,1.9,0.3c0.6,0.4,0.8,1.1,0.6,1.8
	c-0.5,2.3-2.2,3.6-4.3,4.3C52.8,45.6,53.6,44.3,53.3,44z"/>
<path class="st2" d="M24,48.5c-0.2,0.4-0.3,0.4-0.4,0.6c-1,1.7-2.6,2.4-4.2,1.9c-1.7-0.4-2.7-2-2.5-3.9c0.2-2.4,0.4-4.8,0.2-7.2
	c0-0.4-0.1-1-0.2-1.4c-0.2-1.1,0.2-1.5,1.2-1.7c1-0.2,1.2,0.4,1.3,1.2c0.4,3,0.1,5.9-0.4,8.9c-0.2,1.2,0.4,2.1,1.4,2.3
	c1.1,0.2,1.9-0.5,1.9-1.9c0.3-3,0.5-6.1,0.9-9.1c0-0.4,0.2-0.8,0.3-1.2c0.1-0.4,0.4-0.6,0.9-0.5S25,37,25,37.3
	c0.4,4.3,0.5,8.6,0.7,12.9c0,0.4,0.1,0.9-0.5,0.9c-0.5,0-0.7-0.4-0.8-0.8C24.2,49.8,24.1,49.3,24,48.5z"/>
<path class="st3" d="M43.6,22.2c0.2,0.9-0.2,1-1,0.6c-0.6-0.4-1.2-0.7-1.8-1.2c-0.4-0.4-0.8-0.4-1.3,0c-0.8,0.5-1.7,1.1-2.7,1.6
	c0-1.2,0.3-2.1,0.4-3.1c0.2-0.8,0.1-1.4-0.5-1.9c-0.7-0.6-1.3-1.4-1.9-2.2c3.9,1.3,7.6,1.1,11.3-1.4c-0.4,1.2-1.1,1.9-1.7,2.5
	C42.7,18.6,42.9,20.3,43.6,22.2z"/>
<path class="st4" d="M38.7,10.7c-0.1-1.2,0.2-2,0.4-2.9c0.2-0.7,0-1.2-0.5-1.8c-0.9-1.1-1.8-2.1-2.7-3.4c3.5,2,7,2.7,11,1.2
	C46.3,4.9,45.6,5.4,45,6c-0.4,0.4-0.6,1-0.4,1.6c0.2,1,0.5,1.9,0.4,3.1c-0.8-0.4-1.6-0.9-2.3-1.3C42.1,9,41.5,9,41,9.4
	C40.3,9.8,39.6,10.3,38.7,10.7z"/>
<path class="st2" d="M31,7.1c0,1.6-1.2,2.7-2.7,2.7c-1.6,0-2.8-1.2-2.8-2.7s1.2-2.8,2.8-2.7C29.7,4.3,31,5.6,31,7.1z"/>
<path class="st2" d="M63.2,44c0.2,2.3,0.3,4.3,0.4,6.1c0,0.4,0.1,1-0.4,1.1c-0.5,0.1-0.9-0.2-1.1-0.6c-0.2-0.4-0.4-0.7-0.4-1.2
	c-0.4-3.1-0.5-6.2-0.4-9.4c0-0.5,0.1-1.1,0.8-1.2c0.6,0,0.8,0.4,1,0.9C63.4,41.3,63.1,42.8,63.2,44z"/>
<path class="st3" d="M41.8,13.8c0,1.1-0.9,1.9-2,1.9c-1.1,0-1.9-0.9-1.9-1.9s1-2,2-2C41,11.9,41.8,12.8,41.8,13.8z"/>
<path class="st4" d="M44,1.9c0,1-0.8,1.9-1.8,1.9c-1,0-1.9-0.8-1.9-1.9S41.2,0,42.2,0C43.2,0,44,0.9,44,1.9z"/>
<path class="st2" d="M63.1,37.4c-0.2,0.4-0.5,0.5-1,0.5c-0.4,0-0.5-0.4-0.5-0.7c0-0.4,0.2-0.7,0.7-0.6C62.7,36.6,63,36.9,63.1,37.4z
	"/>
</svg>
