<?xml version="1.0" encoding="utf-8"?>
<!-- Generator: Adobe Illustrator 27.9.0, SVG Export Plug-In . SVG Version: 6.00 Build 0)  -->
<svg version="1.1" id="Layer_1" xmlns="http://www.w3.org/2000/svg" xmlns:xlink="http://www.w3.org/1999/xlink" x="0px" y="0px"
	 viewBox="0 0 25 25" style="enable-background:new 0 0 25 25;" xml:space="preserve">
<style type="text/css">
	.st0{fill:#28B5E7;}
</style>
<path class="st0" d="M12.1,2.5c-5.5,0-10,4.5-10,10c0,5.5,4.5,10,10,10c5.5,0,10-4.5,10-10C22.1,7,17.6,2.5,12.1,2.5z M10.1,17l-3-3
	c-0.4-0.4-0.4-1,0-1.4c0.4-0.4,1-0.4,1.4,0l1.6,1.6l4.6-4.6c0.4-0.4,1-0.4,1.4,0c0.4,0.4,0.4,1,0,1.4L10.1,17z"/>
</svg>
